<?xml version="1.0" encoding="iso-8859-1"?>
<!-- Generator: Adobe Illustrator 16.0.0, SVG Export Plug-In . SVG Version: 6.00 Build 0)  -->
<!DOCTYPE svg PUBLIC "-//W3C//DTD SVG 1.1//EN" "http://www.w3.org/Graphics/SVG/1.1/DTD/svg11.dtd">
<svg version="1.1" id="Capa_1" xmlns="http://www.w3.org/2000/svg" xmlns:xlink="http://www.w3.org/1999/xlink" x="0px" y="0px"
	 width="32px" height="32px" viewBox="0 0 32 32" style="enable-background:new 0 0 32 32;" xml:space="preserve">
<g>
	<path d="M0,0v32h32V0H0z M17.952,21.639c-1.569,0-3.048-0.849-3.552-1.812c0,0-0.846,3.35-1.023,3.994
		c-0.63,2.287-2.482,4.572-2.624,4.759c-0.101,0.132-0.323,0.09-0.347-0.081c-0.04-0.293-0.514-3.176,0.043-5.525
		c0.279-1.182,1.871-7.925,1.871-7.925s-0.465-0.926-0.465-2.299c0-2.156,1.25-3.764,2.807-3.764c1.322,0,1.959,0.992,1.959,2.182
		c0,1.33-0.846,3.318-1.283,5.16c-0.363,1.543,0.771,2.801,2.295,2.801c2.756,0,4.61-3.538,4.61-7.729
		c0-3.188-2.146-5.573-6.05-5.573c-4.41,0-7.159,3.29-7.159,6.964c0,1.268,0.375,2.16,0.96,2.852
		c0.27,0.318,0.306,0.445,0.209,0.812c-0.071,0.269-0.229,0.911-0.299,1.167c-0.094,0.369-0.395,0.498-0.727,0.361
		c-2.031-0.828-2.978-3.051-2.978-5.553c0-4.131,3.481-9.084,10.393-9.084c5.553,0,9.204,4.018,9.204,8.331
		C25.798,17.377,22.626,21.639,17.952,21.639z"/>
</g>
<g>
</g>
<g>
</g>
<g>
</g>
<g>
</g>
<g>
</g>
<g>
</g>
<g>
</g>
<g>
</g>
<g>
</g>
<g>
</g>
<g>
</g>
<g>
</g>
<g>
</g>
<g>
</g>
<g>
</g>
</svg>
